#!OML:ASF F:\VICON\USERDATA\INSTALL\rory3\rory3.ASF
:FULLY-SPECIFIED
:DEGREES
1363
root -1.79357 14.2712 16.0775 157.272 41.5691 163.808
lowerback -40.0782 -5.14356 27.5795
upperback -13.2797 -14.141 5.97117
thorax -1.15429 -6.84086 -10.5314
lowerneck 8.32517 -14.7853 -9.11064
upperneck 44.7758 -11.844 -18.2219
head 13.6133 -6.44103 -6.36128
rclavicle 1.87653e-013 -1.7175e-013
rhumerus -19.4655 -17.8649 31.1898
rradius 38.7841
rwrist -6.75822
rhand -25.5109 -30.8006
rfingers 7.12502
rthumb -178.982 479.222
lclavicle 1.87653e-013 -1.7175e-013
lhumerus 10.5629 23.2227 20.4609
lradius 23.1716
lwrist 26.7575
lhand -31.4108 -12.4437
lfingers 7.12502
lthumb -4.67979 17.4846
rfemur -53.4587 -1.16524 69.3669
rtibia 50.1714
rfoot 12.3399 -13.9485
rtoes -20.418
lfemur -25.0328 23.2044 14.8876
ltibia 100.139
lfoot 4.16652 -10.699
ltoes -2.87482
1364
root -1.79386 14.2724 16.1557 157.301 41.1569 163.763
lowerback -39.8595 -5.27284 27.4214
upperback -13.3636 -14.1503 6.05698
thorax -1.26263 -6.85238 -10.3571
lowerneck 7.86772 -14.8444 -8.76906
upperneck 45.1509 -11.5571 -19.0014
head 13.793 -6.3304 -6.79448
rclavicle 4.13472e-014 -6.99722e-014
rhumerus -19.3181 -18.1356 31.084
rradius 38.6944
rwrist -6.5488
rhand -25.6846 -30.5575
rfingers 7.12502
rthumb -179.15 479.464
lclavicle 4.13472e-014 -6.99722e-014
lhumerus 10.4734 23.6091 20.6356
lradius 23.1588
lwrist 26.2378
lhand -31.578 -11.1313
lfingers 7.12502
lthumb -4.84125 18.7934
rfemur -53.5651 -1.08441 69.1952
rtibia 50.6953
rfoot 11.8007 -14.8125
rtoes -19.2295
lfemur -24.9701 23.37 14.8635
ltibia 100.041
lfoot 4.25895 -10.5973
ltoes -2.89421
1365
root -1.7893 14.2825 16.228 157.257 40.7427 163.599
lowerback -39.7143 -5.35047 27.2792
upperback -13.3758 -14.1535 6.09676
thorax -1.27641 -6.85135 -10.2521
lowerneck 7.40595 -14.8976 -8.4373
upperneck 45.3353 -11.4222 -19.4532
head 13.8991 -6.27247 -7.08192
rclavicle 6.99722e-014 6.99722e-014
rhumerus -19.1981 -18.7118 30.9899
rradius 38.695
rwrist -6.25579
rhand -25.6412 -30.6598
rfingers 7.12502
rthumb -179.108 479.362
lclavicle 6.99722e-014 6.99722e-014
lhumerus 10.3601 23.962 20.7004
lradius 23.0101
lwrist 25.8437
lhand -31.6825 -12.1801
lfingers 7.12502
lthumb -4.94221 17.7423
rfemur -53.651 -1.0552 68.9451
rtibia 51.2794
rfoot 10.9086 -15.67
rtoes -16.536
lfemur -24.7349 23.6014 14.763
ltibia 99.9152
lfoot 4.3161 -10.6111
ltoes -2.56879
1366
root -1.79441 14.2781 16.291 157.283 40.2319 163.511
lowerback -39.6618 -5.4279 27.1365
upperback -13.3396 -14.2005 6.07185
thorax -1.23116 -6.8672 -10.2373
lowerneck 6.83084 -14.8878 -8.37539
upperneck 45.747 -11.255 -19.4832
head 14.2301 -6.18986 -7.21317
rclavicle 1.36764e-013 1.90833e-014
rhumerus -19.1407 -18.8458 30.8272
rradius 38.5215
rwrist -5.82296
rhand -25.6476 -30.915
rfingers 7.12502
rthumb -179.114 479.107
lclavicle 1.36764e-013 1.90833e-014
lhumerus 10.3917 24.4115 20.7629
lradius 23.0053
lwrist 25.4225
lhand -31.7244 -11.991
lfingers 7.12502
lthumb -4.98265 17.9304
rfemur -53.8915 -1.02241 68.7128
rtibia 51.8802
rfoot 10.1521 -16.3821
rtoes -12.2343
lfemur -24.6548 23.9397 14.7437
ltibia 99.9234
lfoot 4.19153 -10.9536
ltoes -3.67545
1367
root -1.80321 14.2666 16.3599 157.366 39.7237 163.514
lowerback -39.5402 -5.5388 26.9959
upperback -13.3301 -14.2586 6.09316
thorax -1.23293 -6.89074 -10.1663
lowerneck 6.73117 -14.9117 -8.50608
upperneck 45.6608 -11.3173 -19.3485
head 14.2313 -6.22892 -7.14153
rclavicle -1.145e-013 1.17681e-013
rhumerus -19.1036 -18.7792 30.6781
rradius 38.4535
rwrist -5.92587
rhand -24.3378 -34.0337
rfingers 7.12502
rthumb -177.849 475.997
lclavicle -1.145e-013 1.17681e-013
lhumerus 10.4895 25.2639 20.9911
lradius 22.8407
lwrist 24.7168
lhand -31.3793 -12.5462
lfingers 7.12502
lthumb -4.64939 17.3827
rfemur -54.1489 -1.05576 68.5964
rtibia 52.4552
rfoot 9.51554 -16.9619
rtoes -5.89541
lfemur -24.6956 24.1603 14.7629
ltibia 99.9898
lfoot 3.70641 -11.0734
ltoes -6.49732
1368
root -1.80414 14.2688 16.4395 157.405 39.3542 163.494
lowerback -39.3917 -5.6186 26.9221
upperback -13.2434 -14.3239 6.20087
thorax -1.15362 -6.89707 -10.0368
lowerneck 6.83616 -14.8184 -8.82443
upperneck 45.0441 -11.5011 -18.6743
head 13.9871 -6.3208 -6.73826
rclavicle -5.08889e-014 -1.90833e-014
rhumerus -19.0109 -18.9556 30.5468
rradius 38.4279
rwrist -6.08044
rhand -19.6351 -42.2942
rfingers 7.12502
rthumb -173.308 467.832
lclavicle -5.08889e-014 -1.90833e-014
lhumerus 10.5033 26.1902 21.2223
lradius 22.6927
lwrist 23.8889
lhand -30.9531 -11.8005
lfingers 7.12502
lthumb -4.23786 18.1371
rfemur -54.1679 -1.02315 68.4928
rtibia 52.9281
rfoot 9.05461 -17.3765
rtoes -1.62725
lfemur -24.5018 24.2102 14.8295
ltibia 99.9385
lfoot 3.57276 -10.793
ltoes -6.30596
